<svg id="vehicleIcon" width="24" height="24" viewBox="0 0 24 24" fill="none" xmlns="http://www.w3.org/2000/svg">
  <path d="M8.79602 14.6925C8.79365 15.0836 8.67552 15.4652 8.45652 15.7892C8.23751 16.1132 7.92746 16.3652 7.56546 16.5132C7.20346 16.6612 6.80573 16.6987 6.42244 16.621C6.03915 16.5432 5.68747 16.3537 5.41177 16.0763C5.13606 15.7989 4.94867 15.4461 4.87324 15.0624C4.79781 14.6786 4.83771 14.2811 4.98792 13.92C5.13813 13.5589 5.39191 13.2504 5.71725 13.0334C6.0426 12.8163 6.42493 12.7005 6.81602 12.7005C7.07751 12.6989 7.33669 12.7494 7.57843 12.8491C7.82017 12.9487 8.03962 13.0956 8.22395 13.2811C8.40829 13.4665 8.55383 13.6869 8.65205 13.9292C8.75027 14.1715 8.79922 14.431 8.79602 14.6925Z" fill="#A8B2B7"/>
  <path d="M19.764 14.6925C19.7617 15.0836 19.6435 15.4652 19.4245 15.7892C19.2055 16.1132 18.8955 16.3652 18.5335 16.5132C18.1715 16.6612 17.7737 16.6987 17.3905 16.621C17.0072 16.5432 16.6555 16.3537 16.3798 16.0763C16.1041 15.7989 15.9167 15.4461 15.8413 15.0624C15.7658 14.6786 15.8057 14.2811 15.9559 13.92C16.1061 13.5589 16.3599 13.2504 16.6853 13.0334C17.0106 12.8163 17.3929 12.7005 17.784 12.7005C18.0455 12.6989 18.3047 12.7494 18.5464 12.8491C18.7882 12.9487 19.0076 13.0956 19.192 13.2811C19.3763 13.4665 19.5218 13.6869 19.6201 13.9292C19.7183 14.1715 19.7672 14.431 19.764 14.6925Z" fill="#A8B2B7"/>
  <path d="M20.52 10.6005L17.532 10.0485C17.2263 10.0469 16.9286 9.95048 16.68 9.77246C15.756 8.99246 14.808 8.21246 13.872 7.44446C13.5683 7.15497 13.1635 6.99564 12.744 7.00046H8.32802C8.08634 6.99468 7.84647 7.04346 7.62624 7.14319C7.40601 7.24291 7.21111 7.39101 7.05602 7.57646L5.22002 9.76046C5.17967 9.82378 5.12214 9.87433 5.05415 9.9062C4.98616 9.93807 4.91051 9.94995 4.83602 9.94046H3.75602C3.39736 9.94359 3.05427 10.0875 2.80065 10.3411C2.54703 10.5947 2.40316 10.9378 2.40002 11.2965V13.0005C2.40002 14.0685 2.82002 14.8005 3.88802 14.6205C3.87597 14.2428 3.94229 13.8667 4.08279 13.5159C4.22329 13.1651 4.43494 12.8472 4.70438 12.5823C4.97383 12.3174 5.29523 12.1111 5.64834 11.9766C6.00144 11.842 6.3786 11.782 6.75602 11.8005H6.92402H7.40402C7.83953 11.8591 8.25271 12.0285 8.60402 12.2925C8.97196 12.6284 9.26616 13.037 9.46802 13.4925C9.60567 13.8408 9.68278 14.2101 9.69602 14.5845H14.82C14.8238 13.9044 15.066 13.2472 15.5046 12.7275C15.9432 12.2078 16.5503 11.8585 17.22 11.7405H17.652H17.748H18.12C18.7929 11.8365 19.4102 12.1674 19.8626 12.6747C20.315 13.182 20.5734 13.833 20.592 14.5125C20.8418 14.4205 21.0596 14.2583 21.2193 14.0454C21.379 13.8325 21.4737 13.578 21.492 13.3125V11.9325C21.501 11.634 21.4103 11.3411 21.2343 11.0999C21.0583 10.8587 20.807 10.683 20.52 10.6005ZM9.21602 9.40046C9.21948 9.46598 9.20912 9.5315 9.18562 9.59275C9.16212 9.65401 9.12599 9.70964 9.0796 9.75604C9.03321 9.80243 8.97757 9.83855 8.91632 9.86205C8.85506 9.88556 8.78955 9.89592 8.72402 9.89246H7.75202C7.45202 9.89246 7.14002 9.89246 6.84002 9.89246C6.78715 9.89208 6.73501 9.88005 6.6873 9.85724C6.6396 9.83442 6.59751 9.80138 6.56402 9.76046C6.55316 9.71015 6.55401 9.65801 6.56649 9.60808C6.57898 9.55814 6.60277 9.51174 6.63602 9.47246L7.83602 8.00846C7.88925 7.94553 7.95535 7.89475 8.02988 7.85956C8.1044 7.82437 8.18561 7.80558 8.26802 7.80446H8.67602C8.74312 7.80101 8.81019 7.81169 8.8729 7.8358C8.93561 7.85991 8.99256 7.89691 9.04007 7.94442C9.08757 7.99192 9.12458 8.04887 9.14869 8.11158C9.1728 8.17429 9.18347 8.24136 9.18002 8.30846L9.21602 9.40046ZM15.096 9.79646C15.096 9.86846 15.024 9.89246 14.892 9.89246H10.728C10.344 9.89246 10.176 9.71246 10.176 9.32846C10.176 8.94446 10.176 8.65646 10.176 8.32046C10.1687 8.25037 10.177 8.17953 10.2002 8.11299C10.2234 8.04644 10.2609 7.98582 10.3102 7.93542C10.3594 7.88502 10.4192 7.84609 10.4852 7.82138C10.5512 7.79667 10.6218 7.7868 10.692 7.79246H12.768C12.8961 7.81595 13.0135 7.87888 13.104 7.97246C13.752 8.46446 14.304 8.99246 14.904 9.48446C15.012 9.62846 15.144 9.71246 15.096 9.84446V9.79646Z" fill="#A8B2B7"/>
</svg>
