<svg fill="none" id="marker" viewBox="0 0 60 60" xmlns="http://www.w3.org/2000/svg">
  <path d="M30 60C37.9565 60 45.5871 56.8393 51.2132 51.2132C56.8393 45.5871 60 37.9565 60 30V0H30C22.0435 0 14.4129 3.16071 8.7868 8.7868C3.16071 14.4129 0 22.0435 0 30C0 37.9565 3.16071 45.5871 8.7868 51.2132C14.4129 56.8393 22.0435 60 30 60Z" fill="#263238"/>
  <path d="M30 57.5C37.2935 57.5 44.2882 54.6027 49.4454 49.4454C54.6027 44.2882 57.5 37.2935 57.5 30V2.5H30C22.7065 2.5 15.7118 5.39731 10.5546 10.5546C5.39731 15.7118 2.5 22.7065 2.5 30C2.5 37.2935 5.39731 44.2882 10.5546 49.4454C15.7118 54.6027 22.7065 57.5 30 57.5Z" stroke="none" stroke-opacity="0.35" stroke-width="5"/>
</svg>
